<svg xmlns="http://www.w3.org/2000/svg" width="128" height="128" viewBox="0 0 128 128">
<rect x="0" y="0" width="128" height="128" fill="none"/><path d="M52 28 Q56 20 64 20 Q72 20 76 28 L76 76 Q76 86 68 92 L64 96 L60 92 Q52 86 52 76 Z" fill="#f2c28b" stroke="#c49a6c" stroke-width="2"/><path d="M76 28 Q80 20 88 20 Q96 20 100 28 L100 76 Q100 86 92 92 L88 96 L84 92 Q76 86 76 76 Z" transform="scale(-1,1) translate(-176,0)" fill="#f2c28b" stroke="#c49a6c" stroke-width="2"/><rect x="54" y="90" width="20" height="12" rx="6" fill="#1D4ED8"/>
</svg>